<mxfile host="app.diagrams.net" modified="2022-06-21T12:54:18.070Z" agent="5.0 (Windows)" etag="3ttrQaraI42YIaycQuj8" version="20.0.1" type="github">
  <diagram id="zotk4uL2nrmAPpBArnpl" name="Page-1">
    <mxGraphModel dx="782" dy="696" grid="1" gridSize="10" guides="1" tooltips="1" connect="1" arrows="1" fold="1" page="1" pageScale="1" pageWidth="850" pageHeight="1100" math="0" shadow="0">
      <root>
        <mxCell id="0" />
        <mxCell id="1" parent="0" />
        <mxCell id="VNoKoXkv4Dmu22qy9VUV-8" value="Cross-Functional Flowchart" style="shape=table;childLayout=tableLayout;rowLines=0;columnLines=0;startSize=40;html=1;whiteSpace=wrap;collapsible=0;recursiveResize=0;expand=0;pointerEvents=0;fontStyle=1;align=center;" vertex="1" parent="1">
          <mxGeometry x="60" y="60" width="700" height="620" as="geometry" />
        </mxCell>
        <mxCell id="VNoKoXkv4Dmu22qy9VUV-9" value="Actor 1" style="swimlane;horizontal=0;points=[[0,0.5],[1,0.5]];portConstraint=eastwest;startSize=40;html=1;whiteSpace=wrap;collapsible=0;recursiveResize=0;expand=0;pointerEvents=0;fontStyle=1" vertex="1" parent="VNoKoXkv4Dmu22qy9VUV-8">
          <mxGeometry y="40" width="700" height="170" as="geometry" />
        </mxCell>
        <mxCell id="VNoKoXkv4Dmu22qy9VUV-10" value="Phase 1" style="swimlane;connectable=0;startSize=40;html=1;whiteSpace=wrap;collapsible=0;recursiveResize=0;expand=0;pointerEvents=0;" vertex="1" parent="VNoKoXkv4Dmu22qy9VUV-9">
          <mxGeometry x="40" width="220" height="170" as="geometry">
            <mxRectangle width="220" height="170" as="alternateBounds" />
          </mxGeometry>
        </mxCell>
        <mxCell id="VNoKoXkv4Dmu22qy9VUV-21" value="" style="points=[[0.25,0,0],[0.5,0,0],[0.75,0,0],[1,0.25,0],[1,0.5,0],[1,0.75,0],[0.75,1,0],[0.5,1,0],[0.25,1,0],[0,0.75,0],[0,0.5,0],[0,0.25,0]];shape=mxgraph.bpmn.task;whiteSpace=wrap;rectStyle=rounded;size=10;taskMarker=abstract;" vertex="1" parent="VNoKoXkv4Dmu22qy9VUV-10">
          <mxGeometry x="30" y="50" width="120" height="80" as="geometry" />
        </mxCell>
        <mxCell id="VNoKoXkv4Dmu22qy9VUV-11" value="Phase 2" style="swimlane;connectable=0;startSize=40;html=1;whiteSpace=wrap;collapsible=0;recursiveResize=0;expand=0;pointerEvents=0;" vertex="1" parent="VNoKoXkv4Dmu22qy9VUV-9">
          <mxGeometry x="260" width="220" height="170" as="geometry">
            <mxRectangle width="220" height="170" as="alternateBounds" />
          </mxGeometry>
        </mxCell>
        <mxCell id="VNoKoXkv4Dmu22qy9VUV-12" value="Phase 3" style="swimlane;connectable=0;startSize=40;html=1;whiteSpace=wrap;collapsible=0;recursiveResize=0;expand=0;pointerEvents=0;" vertex="1" parent="VNoKoXkv4Dmu22qy9VUV-9">
          <mxGeometry x="480" width="220" height="170" as="geometry">
            <mxRectangle width="220" height="170" as="alternateBounds" />
          </mxGeometry>
        </mxCell>
        <mxCell id="VNoKoXkv4Dmu22qy9VUV-13" value="Actor 2" style="swimlane;horizontal=0;points=[[0,0.5],[1,0.5]];portConstraint=eastwest;startSize=40;html=1;whiteSpace=wrap;collapsible=0;recursiveResize=0;expand=0;pointerEvents=0;" vertex="1" parent="VNoKoXkv4Dmu22qy9VUV-8">
          <mxGeometry y="210" width="700" height="170" as="geometry" />
        </mxCell>
        <mxCell id="VNoKoXkv4Dmu22qy9VUV-14" value="" style="swimlane;connectable=0;startSize=0;html=1;whiteSpace=wrap;collapsible=0;recursiveResize=0;expand=0;pointerEvents=0;" vertex="1" parent="VNoKoXkv4Dmu22qy9VUV-13">
          <mxGeometry x="40" width="220" height="170" as="geometry">
            <mxRectangle width="220" height="170" as="alternateBounds" />
          </mxGeometry>
        </mxCell>
        <mxCell id="VNoKoXkv4Dmu22qy9VUV-15" value="" style="swimlane;connectable=0;startSize=0;html=1;whiteSpace=wrap;collapsible=0;recursiveResize=0;expand=0;pointerEvents=0;" vertex="1" parent="VNoKoXkv4Dmu22qy9VUV-13">
          <mxGeometry x="260" width="220" height="170" as="geometry">
            <mxRectangle width="220" height="170" as="alternateBounds" />
          </mxGeometry>
        </mxCell>
        <mxCell id="VNoKoXkv4Dmu22qy9VUV-24" value="" style="points=[[0.25,0,0],[0.5,0,0],[0.75,0,0],[1,0.25,0],[1,0.5,0],[1,0.75,0],[0.75,1,0],[0.5,1,0],[0.25,1,0],[0,0.75,0],[0,0.5,0],[0,0.25,0]];shape=mxgraph.bpmn.task;whiteSpace=wrap;rectStyle=rounded;size=10;taskMarker=abstract;" vertex="1" parent="VNoKoXkv4Dmu22qy9VUV-15">
          <mxGeometry x="45" y="40" width="120" height="80" as="geometry" />
        </mxCell>
        <mxCell id="VNoKoXkv4Dmu22qy9VUV-16" value="" style="swimlane;connectable=0;startSize=0;html=1;whiteSpace=wrap;collapsible=0;recursiveResize=0;expand=0;pointerEvents=0;" vertex="1" parent="VNoKoXkv4Dmu22qy9VUV-13">
          <mxGeometry x="480" width="220" height="170" as="geometry">
            <mxRectangle width="220" height="170" as="alternateBounds" />
          </mxGeometry>
        </mxCell>
        <mxCell id="VNoKoXkv4Dmu22qy9VUV-17" value="Actor 3" style="swimlane;horizontal=0;points=[[0,0.5],[1,0.5]];portConstraint=eastwest;startSize=40;html=1;whiteSpace=wrap;collapsible=0;recursiveResize=0;expand=0;pointerEvents=0;" vertex="1" parent="VNoKoXkv4Dmu22qy9VUV-8">
          <mxGeometry y="380" width="700" height="240" as="geometry" />
        </mxCell>
        <mxCell id="VNoKoXkv4Dmu22qy9VUV-18" value="" style="swimlane;connectable=0;startSize=0;html=1;whiteSpace=wrap;collapsible=0;recursiveResize=0;expand=0;pointerEvents=0;" vertex="1" parent="VNoKoXkv4Dmu22qy9VUV-17">
          <mxGeometry x="40" width="220" height="240" as="geometry">
            <mxRectangle width="220" height="240" as="alternateBounds" />
          </mxGeometry>
        </mxCell>
        <mxCell id="VNoKoXkv4Dmu22qy9VUV-19" value="" style="swimlane;connectable=0;startSize=0;html=1;whiteSpace=wrap;collapsible=0;recursiveResize=0;expand=0;pointerEvents=0;" vertex="1" parent="VNoKoXkv4Dmu22qy9VUV-17">
          <mxGeometry x="260" width="220" height="240" as="geometry">
            <mxRectangle width="220" height="240" as="alternateBounds" />
          </mxGeometry>
        </mxCell>
        <mxCell id="VNoKoXkv4Dmu22qy9VUV-20" value="" style="swimlane;connectable=0;startSize=0;html=1;whiteSpace=wrap;collapsible=0;recursiveResize=0;expand=0;pointerEvents=0;" vertex="1" parent="VNoKoXkv4Dmu22qy9VUV-17">
          <mxGeometry x="480" width="220" height="240" as="geometry">
            <mxRectangle width="220" height="240" as="alternateBounds" />
          </mxGeometry>
        </mxCell>
        <mxCell id="VNoKoXkv4Dmu22qy9VUV-25" value="" style="edgeStyle=orthogonalEdgeStyle;rounded=0;orthogonalLoop=1;jettySize=auto;html=1;entryX=0;entryY=0.5;entryDx=0;entryDy=0;entryPerimeter=0;" edge="1" parent="VNoKoXkv4Dmu22qy9VUV-8" source="VNoKoXkv4Dmu22qy9VUV-21" target="VNoKoXkv4Dmu22qy9VUV-24">
          <mxGeometry relative="1" as="geometry" />
        </mxCell>
      </root>
    </mxGraphModel>
  </diagram>
</mxfile>
